<mxfile host="app.diagrams.net" agent="Mozilla/5.0 (Windows NT 10.0; Win64; x64) AppleWebKit/537.36 (KHTML, like Gecko) Chrome/135.0.0.0 Safari/537.36" version="26.2.9">
  <diagram name="페이지-1" id="egJoiDIIUXm9gyIZDoWc">
    <mxGraphModel dx="3980" dy="2054" grid="0" gridSize="10" guides="1" tooltips="1" connect="1" arrows="1" fold="1" page="0" pageScale="1" pageWidth="827" pageHeight="1169" math="0" shadow="0">
      <root>
        <mxCell id="0" />
        <mxCell id="1" parent="0" />
        <mxCell id="crqbF4x87-g-6KRFwV_k-2" value="Start" style="ellipse;aspect=fixed;strokeWidth=1;whiteSpace=wrap;fontSize=30;" vertex="1" parent="1">
          <mxGeometry x="150" y="4" width="84" height="84" as="geometry" />
        </mxCell>
        <mxCell id="crqbF4x87-g-6KRFwV_k-3" value="Set input_url, hashed_url buffer" style="whiteSpace=wrap;strokeWidth=1;fontSize=30;" vertex="1" parent="1">
          <mxGeometry x="61" y="120" width="260" height="88" as="geometry" />
        </mxCell>
        <mxCell id="crqbF4x87-g-6KRFwV_k-4" value="Get home directory path" style="whiteSpace=wrap;strokeWidth=1;fontSize=30;" vertex="1" parent="1">
          <mxGeometry x="73" y="248" width="237" height="77" as="geometry" />
        </mxCell>
        <mxCell id="crqbF4x87-g-6KRFwV_k-5" value="Set umask to 0" style="whiteSpace=wrap;strokeWidth=1;fontSize=30;" vertex="1" parent="1">
          <mxGeometry x="109" y="352" width="166" height="77" as="geometry" />
        </mxCell>
        <mxCell id="crqbF4x87-g-6KRFwV_k-6" value="Create ~/cache directory" style="whiteSpace=wrap;strokeWidth=1;fontSize=30;" vertex="1" parent="1">
          <mxGeometry x="71" y="456" width="242" height="75" as="geometry" />
        </mxCell>
        <mxCell id="crqbF4x87-g-6KRFwV_k-7" value="Create ~/logfile directory" style="whiteSpace=wrap;strokeWidth=1;fontSize=30;" vertex="1" parent="1">
          <mxGeometry x="69" y="560" width="245" height="77" as="geometry" />
        </mxCell>
        <mxCell id="crqbF4x87-g-6KRFwV_k-8" value="Open logfile.txt in append mode" style="whiteSpace=wrap;strokeWidth=1;fontSize=30;" vertex="1" parent="1">
          <mxGeometry x="61" y="664" width="260" height="101" as="geometry" />
        </mxCell>
        <mxCell id="crqbF4x87-g-6KRFwV_k-71" style="edgeStyle=none;curved=1;rounded=0;orthogonalLoop=1;jettySize=auto;html=1;exitX=0.5;exitY=1;exitDx=0;exitDy=0;fontSize=30;startSize=8;endSize=8;entryX=0.5;entryY=0;entryDx=0;entryDy=0;" edge="1" parent="1" source="crqbF4x87-g-6KRFwV_k-9" target="crqbF4x87-g-6KRFwV_k-10">
          <mxGeometry relative="1" as="geometry">
            <mxPoint x="190" y="933" as="targetPoint" />
          </mxGeometry>
        </mxCell>
        <mxCell id="crqbF4x87-g-6KRFwV_k-9" value="Save program start time" style="whiteSpace=wrap;strokeWidth=1;fontSize=30;" vertex="1" parent="1">
          <mxGeometry x="75" y="792" width="233" height="83" as="geometry" />
        </mxCell>
        <mxCell id="crqbF4x87-g-6KRFwV_k-11" value="Get current time" style="whiteSpace=wrap;strokeWidth=1;fontSize=30;" vertex="1" parent="1">
          <mxGeometry x="419" y="1025" width="181" height="80" as="geometry" />
        </mxCell>
        <mxCell id="crqbF4x87-g-6KRFwV_k-12" value="Is input bye?" style="rhombus;strokeWidth=1;whiteSpace=wrap;fontSize=30;" vertex="1" parent="1">
          <mxGeometry x="399" y="1129" width="226" height="143" as="geometry" />
        </mxCell>
        <mxCell id="crqbF4x87-g-6KRFwV_k-13" value="Save end time" style="whiteSpace=wrap;strokeWidth=1;fontSize=30;" vertex="1" parent="1">
          <mxGeometry x="566" y="1329" width="162" height="70" as="geometry" />
        </mxCell>
        <mxCell id="crqbF4x87-g-6KRFwV_k-14" value="Calculate runtime" style="whiteSpace=wrap;strokeWidth=1;fontSize=30;" vertex="1" parent="1">
          <mxGeometry x="552" y="1435" width="189" height="80" as="geometry" />
        </mxCell>
        <mxCell id="crqbF4x87-g-6KRFwV_k-15" value="Write termination log" style="whiteSpace=wrap;strokeWidth=1;fontSize=30;" vertex="1" parent="1">
          <mxGeometry x="540" y="1541" width="214" height="90" as="geometry" />
        </mxCell>
        <mxCell id="crqbF4x87-g-6KRFwV_k-63" style="edgeStyle=none;curved=1;rounded=0;orthogonalLoop=1;jettySize=auto;html=1;exitX=0.5;exitY=1;exitDx=0;exitDy=0;entryX=0.5;entryY=0;entryDx=0;entryDy=0;fontSize=30;startSize=8;endSize=8;" edge="1" parent="1" source="crqbF4x87-g-6KRFwV_k-16" target="crqbF4x87-g-6KRFwV_k-31">
          <mxGeometry relative="1" as="geometry" />
        </mxCell>
        <mxCell id="crqbF4x87-g-6KRFwV_k-16" value="Close log file" style="whiteSpace=wrap;strokeWidth=1;fontSize=30;" vertex="1" parent="1">
          <mxGeometry x="570" y="1647" width="153" height="88" as="geometry" />
        </mxCell>
        <mxCell id="crqbF4x87-g-6KRFwV_k-17" value="End" style="ellipse;aspect=fixed;strokeWidth=1;whiteSpace=wrap;fontSize=30;" vertex="1" parent="1">
          <mxGeometry x="817" y="1874" width="86" height="86" as="geometry" />
        </mxCell>
        <mxCell id="crqbF4x87-g-6KRFwV_k-18" value="Convert URL to SHA1 hash" style="whiteSpace=wrap;strokeWidth=1;fontSize=30;" vertex="1" parent="1">
          <mxGeometry x="249" y="1322" width="246" height="74" as="geometry" />
        </mxCell>
        <mxCell id="crqbF4x87-g-6KRFwV_k-19" value="Parse first 3 chars → dir name" style="whiteSpace=wrap;strokeWidth=1;fontSize=30;" vertex="1" parent="1">
          <mxGeometry x="242" y="1449" width="260" height="78" as="geometry" />
        </mxCell>
        <mxCell id="crqbF4x87-g-6KRFwV_k-20" value="Change dir to ~/cache" style="whiteSpace=wrap;strokeWidth=1;fontSize=30;" vertex="1" parent="1">
          <mxGeometry x="262" y="1551" width="220" height="90" as="geometry" />
        </mxCell>
        <mxCell id="crqbF4x87-g-6KRFwV_k-21" value="Create dir if not exists" style="whiteSpace=wrap;strokeWidth=1;fontSize=30;" vertex="1" parent="1">
          <mxGeometry x="261" y="1663" width="222" height="72" as="geometry" />
        </mxCell>
        <mxCell id="crqbF4x87-g-6KRFwV_k-22" value="Parse last 37 chars → file name" style="whiteSpace=wrap;strokeWidth=1;fontSize=30;" vertex="1" parent="1">
          <mxGeometry x="242" y="1785" width="260" height="78" as="geometry" />
        </mxCell>
        <mxCell id="crqbF4x87-g-6KRFwV_k-23" value="Change dir to parsed subdir" style="whiteSpace=wrap;strokeWidth=1;fontSize=30;" vertex="1" parent="1">
          <mxGeometry x="243" y="1897" width="258" height="83" as="geometry" />
        </mxCell>
        <mxCell id="crqbF4x87-g-6KRFwV_k-24" value="Check if file exists" style="whiteSpace=wrap;strokeWidth=1;fontSize=30;" vertex="1" parent="1">
          <mxGeometry x="276" y="2017" width="193" height="75" as="geometry" />
        </mxCell>
        <mxCell id="crqbF4x87-g-6KRFwV_k-25" value="File exists?" style="rhombus;strokeWidth=1;whiteSpace=wrap;fontSize=30;" vertex="1" parent="1">
          <mxGeometry x="283" y="2121" width="202" height="132" as="geometry" />
        </mxCell>
        <mxCell id="crqbF4x87-g-6KRFwV_k-26" value="Create file" style="whiteSpace=wrap;strokeWidth=1;fontSize=30;" vertex="1" parent="1">
          <mxGeometry x="461" y="2305" width="137" height="93" as="geometry" />
        </mxCell>
        <mxCell id="crqbF4x87-g-6KRFwV_k-27" value="miss++" style="whiteSpace=wrap;strokeWidth=1;fontSize=30;" vertex="1" parent="1">
          <mxGeometry x="475" y="2430" width="108" height="54" as="geometry" />
        </mxCell>
        <mxCell id="crqbF4x87-g-6KRFwV_k-73" style="edgeStyle=none;curved=1;rounded=0;orthogonalLoop=1;jettySize=auto;html=1;exitX=0;exitY=0.5;exitDx=0;exitDy=0;entryX=0;entryY=0.5;entryDx=0;entryDy=0;fontSize=30;startSize=8;endSize=8;" edge="1" parent="1" source="crqbF4x87-g-6KRFwV_k-28" target="crqbF4x87-g-6KRFwV_k-10">
          <mxGeometry relative="1" as="geometry">
            <Array as="points">
              <mxPoint x="-39" y="1788" />
            </Array>
          </mxGeometry>
        </mxCell>
        <mxCell id="crqbF4x87-g-6KRFwV_k-28" value="Write &#xa;MISS log" style="whiteSpace=wrap;strokeWidth=1;fontSize=30;" vertex="1" parent="1">
          <mxGeometry x="153" y="2526" width="161" height="70" as="geometry" />
        </mxCell>
        <mxCell id="crqbF4x87-g-6KRFwV_k-64" style="edgeStyle=none;curved=1;rounded=0;orthogonalLoop=1;jettySize=auto;html=1;exitX=0.5;exitY=1;exitDx=0;exitDy=0;entryX=0;entryY=0.5;entryDx=0;entryDy=0;fontSize=30;startSize=8;endSize=8;" edge="1" parent="1" source="crqbF4x87-g-6KRFwV_k-31" target="crqbF4x87-g-6KRFwV_k-17">
          <mxGeometry relative="1" as="geometry">
            <Array as="points">
              <mxPoint x="704" y="1917" />
            </Array>
          </mxGeometry>
        </mxCell>
        <mxCell id="crqbF4x87-g-6KRFwV_k-31" value="Return 0" style="whiteSpace=wrap;strokeWidth=1;fontSize=30;" vertex="1" parent="1">
          <mxGeometry x="586.5" y="1791" width="121" height="54" as="geometry" />
        </mxCell>
        <mxCell id="crqbF4x87-g-6KRFwV_k-32" value="" style="curved=1;startArrow=none;endArrow=block;exitX=0.51;exitY=1;entryX=0.5;entryY=0;rounded=0;fontSize=30;startSize=8;endSize=8;strokeWidth=1;" edge="1" parent="1" source="crqbF4x87-g-6KRFwV_k-2" target="crqbF4x87-g-6KRFwV_k-3">
          <mxGeometry relative="1" as="geometry">
            <Array as="points" />
          </mxGeometry>
        </mxCell>
        <mxCell id="crqbF4x87-g-6KRFwV_k-33" value="" style="curved=1;startArrow=none;endArrow=block;exitX=0.5;exitY=1;entryX=0.5;entryY=0;rounded=0;fontSize=30;startSize=8;endSize=8;strokeWidth=1;" edge="1" parent="1" source="crqbF4x87-g-6KRFwV_k-3" target="crqbF4x87-g-6KRFwV_k-4">
          <mxGeometry relative="1" as="geometry">
            <Array as="points" />
          </mxGeometry>
        </mxCell>
        <mxCell id="crqbF4x87-g-6KRFwV_k-34" value="" style="curved=1;startArrow=none;endArrow=block;exitX=0.5;exitY=1;entryX=0.5;entryY=0;rounded=0;fontSize=30;startSize=8;endSize=8;strokeWidth=1;" edge="1" parent="1" source="crqbF4x87-g-6KRFwV_k-4" target="crqbF4x87-g-6KRFwV_k-5">
          <mxGeometry relative="1" as="geometry">
            <Array as="points" />
          </mxGeometry>
        </mxCell>
        <mxCell id="crqbF4x87-g-6KRFwV_k-35" value="" style="curved=1;startArrow=none;endArrow=block;exitX=0.5;exitY=1;entryX=0.5;entryY=0;rounded=0;fontSize=30;startSize=8;endSize=8;strokeWidth=1;" edge="1" parent="1" source="crqbF4x87-g-6KRFwV_k-5" target="crqbF4x87-g-6KRFwV_k-6">
          <mxGeometry relative="1" as="geometry">
            <Array as="points" />
          </mxGeometry>
        </mxCell>
        <mxCell id="crqbF4x87-g-6KRFwV_k-36" value="" style="curved=1;startArrow=none;endArrow=block;exitX=0.5;exitY=1;entryX=0.5;entryY=0;rounded=0;fontSize=30;startSize=8;endSize=8;strokeWidth=1;" edge="1" parent="1" source="crqbF4x87-g-6KRFwV_k-6" target="crqbF4x87-g-6KRFwV_k-7">
          <mxGeometry relative="1" as="geometry">
            <Array as="points" />
          </mxGeometry>
        </mxCell>
        <mxCell id="crqbF4x87-g-6KRFwV_k-37" value="" style="curved=1;startArrow=none;endArrow=block;exitX=0.5;exitY=1;entryX=0.5;entryY=0;rounded=0;fontSize=30;startSize=8;endSize=8;strokeWidth=1;" edge="1" parent="1" source="crqbF4x87-g-6KRFwV_k-7" target="crqbF4x87-g-6KRFwV_k-8">
          <mxGeometry relative="1" as="geometry">
            <Array as="points" />
          </mxGeometry>
        </mxCell>
        <mxCell id="crqbF4x87-g-6KRFwV_k-38" value="" style="curved=1;startArrow=none;endArrow=block;exitX=0.5;exitY=1;entryX=0.5;entryY=0;rounded=0;fontSize=30;startSize=8;endSize=8;strokeWidth=1;" edge="1" parent="1" source="crqbF4x87-g-6KRFwV_k-8" target="crqbF4x87-g-6KRFwV_k-9">
          <mxGeometry relative="1" as="geometry">
            <Array as="points" />
          </mxGeometry>
        </mxCell>
        <mxCell id="crqbF4x87-g-6KRFwV_k-40" value="" style="curved=1;startArrow=none;endArrow=block;exitX=1;exitY=0.7;entryX=0.5;entryY=0;rounded=0;fontSize=30;startSize=8;endSize=8;strokeWidth=1;" edge="1" parent="1" source="crqbF4x87-g-6KRFwV_k-10" target="crqbF4x87-g-6KRFwV_k-11">
          <mxGeometry relative="1" as="geometry">
            <Array as="points">
              <mxPoint x="510" y="1000" />
            </Array>
          </mxGeometry>
        </mxCell>
        <mxCell id="crqbF4x87-g-6KRFwV_k-41" value="" style="curved=1;startArrow=none;endArrow=block;exitX=0.5;exitY=1;entryX=0.5;entryY=0;rounded=0;fontSize=30;startSize=8;endSize=8;strokeWidth=1;" edge="1" parent="1" source="crqbF4x87-g-6KRFwV_k-11" target="crqbF4x87-g-6KRFwV_k-12">
          <mxGeometry relative="1" as="geometry">
            <Array as="points" />
          </mxGeometry>
        </mxCell>
        <mxCell id="crqbF4x87-g-6KRFwV_k-42" value="Yes" style="curved=1;startArrow=none;endArrow=block;exitX=1;exitY=0.9;entryX=0.5;entryY=0.01;rounded=0;fontSize=30;startSize=8;endSize=8;strokeWidth=1;" edge="1" parent="1" source="crqbF4x87-g-6KRFwV_k-12" target="crqbF4x87-g-6KRFwV_k-13">
          <mxGeometry relative="1" as="geometry">
            <Array as="points">
              <mxPoint x="647" y="1309" />
            </Array>
          </mxGeometry>
        </mxCell>
        <mxCell id="crqbF4x87-g-6KRFwV_k-43" value="" style="curved=1;startArrow=none;endArrow=block;exitX=0.5;exitY=1.01;entryX=0.5;entryY=0.01;rounded=0;fontSize=30;startSize=8;endSize=8;strokeWidth=1;" edge="1" parent="1" source="crqbF4x87-g-6KRFwV_k-13" target="crqbF4x87-g-6KRFwV_k-14">
          <mxGeometry relative="1" as="geometry">
            <Array as="points" />
          </mxGeometry>
        </mxCell>
        <mxCell id="crqbF4x87-g-6KRFwV_k-44" value="" style="curved=1;startArrow=none;endArrow=block;exitX=0.5;exitY=1.01;entryX=0.5;entryY=0;rounded=0;fontSize=30;startSize=8;endSize=8;strokeWidth=1;" edge="1" parent="1" source="crqbF4x87-g-6KRFwV_k-14" target="crqbF4x87-g-6KRFwV_k-15">
          <mxGeometry relative="1" as="geometry">
            <Array as="points" />
          </mxGeometry>
        </mxCell>
        <mxCell id="crqbF4x87-g-6KRFwV_k-45" value="" style="curved=1;startArrow=none;endArrow=block;exitX=0.5;exitY=1;entryX=0.5;entryY=0;rounded=0;fontSize=30;startSize=8;endSize=8;strokeWidth=1;" edge="1" parent="1" source="crqbF4x87-g-6KRFwV_k-15" target="crqbF4x87-g-6KRFwV_k-16">
          <mxGeometry relative="1" as="geometry">
            <Array as="points" />
          </mxGeometry>
        </mxCell>
        <mxCell id="crqbF4x87-g-6KRFwV_k-47" value="No" style="curved=1;startArrow=none;endArrow=block;exitX=0;exitY=0.9;entryX=0.5;entryY=0.01;rounded=0;fontSize=30;startSize=8;endSize=8;strokeWidth=1;" edge="1" parent="1" source="crqbF4x87-g-6KRFwV_k-12" target="crqbF4x87-g-6KRFwV_k-18">
          <mxGeometry relative="1" as="geometry">
            <Array as="points">
              <mxPoint x="372" y="1309" />
            </Array>
          </mxGeometry>
        </mxCell>
        <mxCell id="crqbF4x87-g-6KRFwV_k-48" value="" style="curved=1;startArrow=none;endArrow=block;exitX=0.5;exitY=1.01;entryX=0.5;entryY=0;rounded=0;fontSize=30;startSize=8;endSize=8;strokeWidth=1;" edge="1" parent="1" source="crqbF4x87-g-6KRFwV_k-18" target="crqbF4x87-g-6KRFwV_k-19">
          <mxGeometry relative="1" as="geometry">
            <Array as="points" />
          </mxGeometry>
        </mxCell>
        <mxCell id="crqbF4x87-g-6KRFwV_k-49" value="" style="curved=1;startArrow=none;endArrow=block;exitX=0.5;exitY=1;entryX=0.5;entryY=0;rounded=0;fontSize=30;startSize=8;endSize=8;strokeWidth=1;" edge="1" parent="1" source="crqbF4x87-g-6KRFwV_k-19" target="crqbF4x87-g-6KRFwV_k-20">
          <mxGeometry relative="1" as="geometry">
            <Array as="points" />
          </mxGeometry>
        </mxCell>
        <mxCell id="crqbF4x87-g-6KRFwV_k-50" value="" style="curved=1;startArrow=none;endArrow=block;exitX=0.5;exitY=1;entryX=0.5;entryY=0;rounded=0;fontSize=30;startSize=8;endSize=8;strokeWidth=1;" edge="1" parent="1" source="crqbF4x87-g-6KRFwV_k-20" target="crqbF4x87-g-6KRFwV_k-21">
          <mxGeometry relative="1" as="geometry">
            <Array as="points" />
          </mxGeometry>
        </mxCell>
        <mxCell id="crqbF4x87-g-6KRFwV_k-51" value="" style="curved=1;startArrow=none;endArrow=block;exitX=0.5;exitY=1;entryX=0.5;entryY=0;rounded=0;fontSize=30;startSize=8;endSize=8;strokeWidth=1;" edge="1" parent="1" source="crqbF4x87-g-6KRFwV_k-21" target="crqbF4x87-g-6KRFwV_k-22">
          <mxGeometry relative="1" as="geometry">
            <Array as="points" />
          </mxGeometry>
        </mxCell>
        <mxCell id="crqbF4x87-g-6KRFwV_k-52" value="" style="curved=1;startArrow=none;endArrow=block;exitX=0.5;exitY=1;entryX=0.5;entryY=0;rounded=0;fontSize=30;startSize=8;endSize=8;strokeWidth=1;" edge="1" parent="1" source="crqbF4x87-g-6KRFwV_k-22" target="crqbF4x87-g-6KRFwV_k-23">
          <mxGeometry relative="1" as="geometry">
            <Array as="points" />
          </mxGeometry>
        </mxCell>
        <mxCell id="crqbF4x87-g-6KRFwV_k-53" value="" style="curved=1;startArrow=none;endArrow=block;exitX=0.5;exitY=1;entryX=0.5;entryY=0;rounded=0;fontSize=30;startSize=8;endSize=8;strokeWidth=1;" edge="1" parent="1" source="crqbF4x87-g-6KRFwV_k-23" target="crqbF4x87-g-6KRFwV_k-24">
          <mxGeometry relative="1" as="geometry">
            <Array as="points" />
          </mxGeometry>
        </mxCell>
        <mxCell id="crqbF4x87-g-6KRFwV_k-54" value="" style="curved=1;startArrow=none;endArrow=block;exitX=0.5;exitY=1;entryX=0.5;entryY=0;rounded=0;fontSize=30;startSize=8;endSize=8;strokeWidth=1;" edge="1" parent="1" source="crqbF4x87-g-6KRFwV_k-24" target="crqbF4x87-g-6KRFwV_k-25">
          <mxGeometry relative="1" as="geometry">
            <Array as="points" />
          </mxGeometry>
        </mxCell>
        <mxCell id="crqbF4x87-g-6KRFwV_k-55" value="No" style="curved=1;startArrow=none;endArrow=block;exitX=1;exitY=0.83;entryX=0.5;entryY=0;rounded=0;fontSize=30;startSize=8;endSize=8;strokeWidth=1;" edge="1" parent="1" source="crqbF4x87-g-6KRFwV_k-25" target="crqbF4x87-g-6KRFwV_k-26">
          <mxGeometry relative="1" as="geometry">
            <Array as="points">
              <mxPoint x="529" y="2289" />
            </Array>
          </mxGeometry>
        </mxCell>
        <mxCell id="crqbF4x87-g-6KRFwV_k-56" value="" style="curved=1;startArrow=none;endArrow=block;exitX=0.5;exitY=1;entryX=0.5;entryY=0;rounded=0;fontSize=30;startSize=8;endSize=8;strokeWidth=1;" edge="1" parent="1" source="crqbF4x87-g-6KRFwV_k-26" target="crqbF4x87-g-6KRFwV_k-27">
          <mxGeometry relative="1" as="geometry">
            <Array as="points" />
          </mxGeometry>
        </mxCell>
        <mxCell id="crqbF4x87-g-6KRFwV_k-57" value="" style="curved=1;startArrow=none;endArrow=block;exitX=0.5;exitY=1;entryX=1;entryY=0.24;rounded=0;fontSize=30;startSize=8;endSize=8;strokeWidth=1;" edge="1" parent="1" source="crqbF4x87-g-6KRFwV_k-27" target="crqbF4x87-g-6KRFwV_k-28">
          <mxGeometry relative="1" as="geometry">
            <Array as="points">
              <mxPoint x="529" y="2509" />
            </Array>
          </mxGeometry>
        </mxCell>
        <mxCell id="crqbF4x87-g-6KRFwV_k-59" value="Yes" style="curved=1;startArrow=none;endArrow=block;exitX=0.06;exitY=1;entryX=0.5;entryY=0;rounded=0;fontSize=30;startSize=8;endSize=8;strokeWidth=1;" edge="1" parent="1" source="crqbF4x87-g-6KRFwV_k-25" target="crqbF4x87-g-6KRFwV_k-29">
          <mxGeometry relative="1" as="geometry">
            <Array as="points">
              <mxPoint x="282" y="2289" />
            </Array>
          </mxGeometry>
        </mxCell>
        <mxCell id="crqbF4x87-g-6KRFwV_k-69" value="while (1)" style="swimlane;whiteSpace=wrap;html=1;fontSize=30;" vertex="1" parent="1">
          <mxGeometry x="-9" y="902" width="795" height="1706" as="geometry" />
        </mxCell>
        <mxCell id="crqbF4x87-g-6KRFwV_k-10" value="Input URL" style="whiteSpace=wrap;strokeWidth=1;fontSize=30;" vertex="1" parent="crqbF4x87-g-6KRFwV_k-69">
          <mxGeometry x="135" y="42" width="130" height="93" as="geometry" />
        </mxCell>
        <mxCell id="crqbF4x87-g-6KRFwV_k-74" style="edgeStyle=none;curved=1;rounded=0;orthogonalLoop=1;jettySize=auto;html=1;exitX=0.5;exitY=1;exitDx=0;exitDy=0;entryX=0.75;entryY=0;entryDx=0;entryDy=0;fontSize=30;startSize=8;endSize=8;" edge="1" parent="crqbF4x87-g-6KRFwV_k-69" source="crqbF4x87-g-6KRFwV_k-29" target="crqbF4x87-g-6KRFwV_k-30">
          <mxGeometry relative="1" as="geometry" />
        </mxCell>
        <mxCell id="crqbF4x87-g-6KRFwV_k-29" value="hit++" style="whiteSpace=wrap;strokeWidth=1;fontSize=30;" vertex="1" parent="crqbF4x87-g-6KRFwV_k-69">
          <mxGeometry x="240" y="1416" width="96" height="54" as="geometry" />
        </mxCell>
        <mxCell id="crqbF4x87-g-6KRFwV_k-30" value="Write &#xa;HIT log" style="whiteSpace=wrap;strokeWidth=1;fontSize=30;" vertex="1" parent="crqbF4x87-g-6KRFwV_k-69">
          <mxGeometry x="153" y="1505" width="154" height="85" as="geometry" />
        </mxCell>
        <mxCell id="crqbF4x87-g-6KRFwV_k-72" style="edgeStyle=none;curved=1;rounded=0;orthogonalLoop=1;jettySize=auto;html=1;exitX=0.5;exitY=0;exitDx=0;exitDy=0;entryX=0;entryY=1;entryDx=0;entryDy=0;fontSize=30;startSize=8;endSize=8;" edge="1" parent="crqbF4x87-g-6KRFwV_k-69" source="crqbF4x87-g-6KRFwV_k-30" target="crqbF4x87-g-6KRFwV_k-10">
          <mxGeometry relative="1" as="geometry">
            <Array as="points">
              <mxPoint x="144" y="891" />
            </Array>
          </mxGeometry>
        </mxCell>
      </root>
    </mxGraphModel>
  </diagram>
</mxfile>
